Movie Information: http://www.imdb.com/title/tt1381406/


General Information

Type: Movie
Video Format: AVI

CD1 Size: 701 MB

Release Notes

Freestyle 2010 DVDRip XviD-PRESTiGE

Format: AVI
Format/Info: Audio Video Interleave
File size: 701 MiB
Duration: 1h 25mn
Overall bit rate: 1 140 Kbps
Writing application: VirtualDubMod 1.5.4.1 (build 2178/release)
Writing library: VirtualDubMod build 2178/release

Video
ID: 0
Format: MPEG-4 Visual
Format profile: Advanced Simple@L5
Format settings, BVOP: 1
Format settings, QPel: No
Format settings, GMC: No warppoints
Format settings, Matrix: Custom
Codec ID: XVID
Codec ID/Hint: XviD
Duration: 1h 25mn
Bit rate: 952 Kbps
Width: 656 pixels
Height: 368 pixels
Display aspect ratio: 16:9
Frame rate: 23.976 fps
Color space: YUV
Chroma subsampling: 4:2:0
Bit depth: 8 bits
Scan type: Progressive
Compression mode: Lossy
Bits/(Pixel*Frame): 0.164
Stream size: 585 MiB (83%)
Writing library: XviD 1.2.1 (UTC 2008-12-04)

Audio
ID: 1
Format: MPEG Audio
Format version: Version 1
Format profile: Layer 3
Mode: Joint stereo
Mode extension: MS Stereo
Codec ID: 55
Codec ID/Hint: MP3
Duration: 1h 25mn
Bit rate mode: Variable
Bit rate: 176 Kbps
Nominal bit rate: 192 Kbps
Channel(s): 2 channels
Sampling rate: 48.0 KHz
Compression mode: Lossy
Stream size: 108 MiB (15%)
Alignment: Aligned on interleaves
Interleave, duration: 24 ms (0.58 video frame)
Interleave, preload duration: 104 ms
Writing library: LAME3.98r
Encoding settings: -m j -V 4 -q 2 -lowpass 18.6 --abr 192